<?xml version="1.0" encoding="UTF-8"?>
<svg width="800px" height="400px" viewBox="0 0 800 400" version="1.1" xmlns="http://www.w3.org/2000/svg" xmlns:xlink="http://www.w3.org/1999/xlink">
    <title>Critical Maps Logo</title>
    <defs></defs>
    <g id="Page-1" stroke="none" stroke-width="1" fill="none" fill-rule="evenodd">
        <g id="Final">
            <g id="Logo">
                <rect id="bounds" x="0" y="0" width="800" height="400"></rect>
                <path d="M396.795312,208.596685 L382.607031,279.403315 L366.136719,279.403315 L373.082031,244.497238 L360.48125,262 L349.964063,262 L343.514844,244.497238 L336.470313,279.403315 L320,279.403315 L334.188281,208.596685 L349.567187,208.596685 L358.596094,239.823204 L380.622656,208.596685 L396.795312,208.596685 Z M451.067969,279.403315 L434.3,279.403315 L433.307812,268.265193 L412.372656,268.265193 L406.915625,279.403315 L389.353906,279.403315 L427.850781,208.596685 L440.65,208.596685 L451.067969,279.403315 Z M432.017969,254.839779 L429.835156,233.955801 L419.119531,254.839779 L432.017969,254.839779 Z M517.246875,228.287293 C517.246875,240.519337 508.11875,253.149171 490.457812,253.149171 L479.54375,253.149171 L474.285156,279.403315 L457.814844,279.403315 L472.003125,208.596685 L497.700781,208.596685 C509.110938,208.596685 517.246875,215.955801 517.246875,228.287293 Z M500.677344,229.779006 C500.677344,226.099448 499.089844,223.21547 494.823438,223.21547 L485.596094,223.21547 L482.520312,238.530387 L491.152344,238.530387 C498.59375,238.530387 500.677344,232.364641 500.677344,229.779006 Z M574,216.850829 L562.490625,226.994475 C559.514062,223.314917 555.644531,222.41989 550.98125,222.41989 C544.234375,222.41989 540.364844,226.596685 540.364844,230.176796 C540.364844,233.955801 543.539844,234.751381 546.417188,235.546961 L551.775,236.939227 C564.177344,240.121547 568.245313,245.889503 568.245313,256.033149 C568.245313,273.138122 554.057031,280 538.975781,280 C527.16875,280 520.124219,277.314917 513.972656,270.254144 L525.878906,259.812155 C529.351562,263.790055 534.3125,265.381215 540.464063,265.381215 C546.913281,265.381215 551.675781,261.801105 551.675781,257.723757 C551.675781,253.944751 549.592187,252.651934 545.722656,251.657459 L540.364844,250.265193 C526.077344,246.585635 523.894531,238.331492 523.894531,232.861878 C523.894531,217.348066 535.9,208 552.866406,208 C561.696875,208 569.535156,211.082873 574,216.850829 Z" id="Maps" fill="#000000"></path>
                <path d="M379.172414,142.574586 L362.700074,142.574586 C362.600843,138.497238 361.21161,134.519337 355.853138,134.519337 C352.280824,134.519337 350.494666,135.812155 348.708509,137.60221 C346.426197,139.889503 344.838502,144.066298 342.456959,156 C341.663111,159.977901 340.57157,166.243094 340.57157,169.922652 C340.57157,174.79558 343.350037,177.480663 347.716199,177.480663 C352.97544,177.480663 356.0516,173.502762 357.639295,169.425414 L374.60779,169.425414 C369.44778,184.939227 359.028529,192 346.426197,192 C331.541553,192 324,181.955801 324,171.314917 C324,168.132597 324.496155,162.961326 325.885388,156 C328.366162,143.569061 330.15232,135.016575 336.503101,128.254144 C342.357728,121.98895 350.196973,120 357.04391,120 C372.127016,120 379.172414,130.143646 379.172414,142.574586 Z M438.512528,141.082873 C438.512528,148.939227 433.749442,158.088398 423.23096,162.464088 L432.657901,191.403315 L414.597867,191.403315 L407.155545,164.552486 L400.903994,164.552486 L395.446291,191.403315 L378.973952,191.403315 L393.163979,120.596685 L418.269412,120.596685 C433.054825,120.596685 438.512528,130.143646 438.512528,141.082873 Z M421.940958,141.977901 C421.940958,137.60221 419.559415,135.314917 415.490945,135.314917 L406.758621,135.314917 L403.58323,150.828729 L412.216323,150.828729 C420.055569,150.828729 421.940958,144.861878 421.940958,141.977901 Z M471.556438,120.596685 L455.084098,120.596685 L440.894071,191.403315 L457.36641,191.403315 L471.556438,120.596685 Z M530.598859,120.596685 L527.62193,135.21547 L511.447284,135.21547 L500.234185,191.403315 L483.761846,191.403315 L494.974944,135.21547 L478.105681,135.21547 L481.08261,120.596685 L530.598859,120.596685 Z M556.895063,120.596685 L542.705036,191.403315 L526.232697,191.403315 L540.422724,120.596685 L556.895063,120.596685 Z M614.349789,142.574586 L597.87745,142.574586 C597.778219,138.497238 596.388985,134.519337 591.030514,134.519337 C587.458199,134.519337 585.672042,135.812155 583.885884,137.60221 C581.603572,139.889503 580.015877,144.066298 577.634334,156 C576.840486,159.977901 575.748946,166.243094 575.748946,169.922652 C575.748946,174.79558 578.527413,177.480663 582.893575,177.480663 C588.152816,177.480663 591.228975,173.502762 592.816671,169.425414 L609.785165,169.425414 C604.625155,184.939227 594.205904,192 581.603572,192 C566.718928,192 559.177375,181.955801 559.177375,171.314917 C559.177375,168.132597 559.67353,162.961326 561.062764,156 C563.543538,143.569061 565.329695,135.016575 571.680476,128.254144 C577.535103,121.98895 585.374349,120 592.221285,120 C607.304391,120 614.349789,130.143646 614.349789,142.574586 Z M669.125279,191.403315 L652.355247,191.403315 L651.362937,180.265193 L630.425205,180.265193 L624.967502,191.403315 L607.403622,191.403315 L645.905234,120.596685 L658.706028,120.596685 L669.125279,191.403315 Z M650.072935,166.839779 L647.889854,145.955801 L637.17291,166.839779 L650.072935,166.839779 Z M724,176.883978 L695.322253,176.883978 L706.535351,120.596685 L690.063012,120.596685 L675.872984,191.403315 L721.122302,191.403315 L724,176.883978 Z" id="Critical" fill="#000000"></path>
                <g id="Icon" transform="translate(60.000000, 80.000000)">
                    <path d="M153.217094,78.944621 L169.103092,92.8448686 L165.80548,97.3201987 L179.949077,111.463795 L167.169637,127.438095 L170.956712,157.734692 L155.464791,173.046474 L162.457649,211.895688 C182.747674,202.418925 199.346867,186.360203 209.508605,166.466144 L190.591499,156.645803 C194.558714,149.019248 197.326268,140.668853 198.644048,131.844731 L219.458728,134.97967 C220.109849,130.358999 220.446575,125.63735 220.446575,120.837055 C220.446575,93.159259 209.252102,68.0960726 191.143845,49.9281847 L176.654515,64.1991826 C170.547536,57.9993608 163.430562,52.7972011 155.570296,48.8594077 L164.595896,30.8082083 C151.159366,24.1396123 136.017511,20.3904802 120,20.3904802 C103.982489,20.3904802 88.8406341,24.1396123 75.4041042,30.8082083 L84.4297038,48.8594077 C76.5694381,52.7972011 69.4524638,57.9993608 63.3454853,64.1991826 L48.8561552,49.9281847 C30.7478985,68.0960726 19.5534255,93.159259 19.5534255,120.837055 C19.5534255,125.63735 19.8901514,130.358999 20.5412715,134.97967 L41.3559517,131.844731 C42.6737321,140.668853 45.4412856,149.019248 49.4085005,156.645803 L30.4913946,166.466144 C40.7244151,186.499755 57.485522,202.644033 77.9698843,212.094147 L82.8330196,169.136452 L56.1787819,117.586416 L78.0215197,67.3465268 L90.3753848,73.5238056 L110.234791,50.053598 L128.130343,58.0071766 L131.076784,54.5696623 L156.44681,74.3019049 L153.217094,78.944621 L153.217094,78.944621 Z" id="Yellow" fill="#FFD633"></path>
                    <path d="M116.046726,111.363636 L122.026966,102.767042 L83.9784803,83.7417323 L69.4575818,117.140857 L95.1669804,166.863548 L89.5385131,216.581675 C94.0290438,218.009093 98.6564687,219.129341 103.396103,219.917734 L106.962418,198.456622 C111.204478,199.156277 115.559739,199.520205 120,199.520205 C124.440261,199.520205 128.795522,199.156277 133.037582,198.456622 L136.603897,219.917734 C141.558941,219.093509 146.391345,217.90658 151.072902,216.385152 L142.535209,168.953526 L158.316016,153.356217 L156.710492,140.512026 L151.246631,147.341852 L117.277492,123.363636 L95.5454545,123.363636 L95.5454545,111.363636 L116.046726,111.363636 L116.046726,111.363636 Z M127.510208,115.89827 L133.89151,120.402718 L152.896908,94.6096768 L146.321865,88.8565137 L127.510208,115.89827 L127.510208,115.89827 Z M119.979564,67.5164186 L113.583391,64.6736748 L101.421289,79.0470674 L107.49359,82.0833881 L119.979564,67.5164186 L119.979564,67.5164186 Z M118.556858,87.6153319 L128.951541,92.8129651 L140.098645,76.7890042 L132.741398,71.0667013 L118.556858,87.6153319 L118.556858,87.6153319 Z M143.697157,127.324351 L143.697157,127.324351 L158.605847,107.091129 L163.869105,112.354387 L148.935187,131.021784 L143.697157,127.324351 Z M120,218.913081 C116.686292,218.913081 114,216.22679 114,212.913081 C114,209.599373 116.686292,206.913081 120,206.913081 C123.313708,206.913081 126,209.599373 126,212.913081 C126,216.22679 123.313708,218.913081 120,218.913081 Z M25.9280693,150.565823 C24.9040771,147.414299 26.6287824,144.029374 29.7803065,143.005382 C32.9318305,141.98139 36.3167553,143.706095 37.3407475,146.857619 C38.3647398,150.009143 36.6400345,153.394068 33.4885104,154.41806 C30.3369863,155.442053 26.9520616,153.717347 25.9280693,150.565823 Z M61.8603495,39.9776361 C64.541196,38.0298872 68.293414,38.6241801 70.2411629,41.3050266 C72.1889119,43.9858731 71.594619,47.7380911 68.9137725,49.6858401 C66.232926,51.6335891 62.480708,51.0392961 60.532959,48.3584496 C58.58521,45.6776031 59.179503,41.9253851 61.8603495,39.9776361 Z M214.071931,150.565823 C213.047938,153.717347 209.663014,155.442053 206.51149,154.41806 C203.359966,153.394068 201.63526,150.009143 202.659252,146.857619 C203.683245,143.706095 207.068169,141.98139 210.219694,143.005382 C213.371218,144.029374 215.095923,147.414299 214.071931,150.565823 Z M178.139651,39.9776361 C180.820497,41.9253851 181.41479,45.6776031 179.467041,48.3584496 C177.519292,51.0392961 173.767074,51.6335891 171.086228,49.6858401 C168.405381,47.7380911 167.811088,43.9858731 169.758837,41.3050266 C171.706586,38.6241801 175.458804,38.0298872 178.139651,39.9776361 Z" id="White" fill="#FFFFFF"></path>
                    <path d="M116.046726,111.363636 L122.026966,102.767042 L83.9784803,83.7417323 L69.4575818,117.140857 L95.1669804,166.863548 L89.5385131,216.581675 C94.0290438,218.009093 98.6564687,219.129341 103.396103,219.917734 L106.962418,198.456622 C111.204478,199.156277 115.559739,199.520205 120,199.520205 C124.440261,199.520205 128.795522,199.156277 133.037582,198.456622 L136.603897,219.917734 C141.558941,219.093509 146.391345,217.90658 151.072902,216.385152 L142.535209,168.953526 L158.316016,153.356217 L156.710492,140.512026 L151.246631,147.341852 L117.277492,123.363636 L95.5454545,123.363636 L95.5454545,111.363636 L116.046726,111.363636 L116.046726,111.363636 Z M127.510208,115.89827 L133.89151,120.402718 L152.896908,94.6096768 L146.321865,88.8565137 L127.510208,115.89827 L127.510208,115.89827 Z M153.217094,78.944621 L169.103092,92.8448686 L165.80548,97.3201987 L179.949077,111.463795 L167.169637,127.438095 L170.956712,157.734692 L155.464791,173.046474 L162.457649,211.895688 C182.747674,202.418925 199.346867,186.360203 209.508605,166.466144 L190.591499,156.645803 C194.558714,149.019248 197.326268,140.668853 198.644048,131.844731 L219.458728,134.97967 C220.109849,130.358999 220.446575,125.63735 220.446575,120.837055 C220.446575,93.159259 209.252102,68.0960726 191.143845,49.9281847 L176.654515,64.1991826 C170.547536,57.9993608 163.430562,52.7972011 155.570296,48.8594077 L164.595896,30.8082083 C151.159366,24.1396123 136.017511,20.3904802 120,20.3904802 C103.982489,20.3904802 88.8406341,24.1396123 75.4041042,30.8082083 L84.4297038,48.8594077 C76.5694381,52.7972011 69.4524638,57.9993608 63.3454853,64.1991826 L48.8561552,49.9281847 C30.7478985,68.0960726 19.5534255,93.159259 19.5534255,120.837055 C19.5534255,125.63735 19.8901514,130.358999 20.5412715,134.97967 L41.3559517,131.844731 C42.6737321,140.668853 45.4412856,149.019248 49.4085005,156.645803 L30.4913946,166.466144 C40.7244151,186.499755 57.485522,202.644033 77.9698843,212.094147 L82.8330196,169.136452 L56.1787819,117.586416 L78.0215197,67.3465268 L90.3753848,73.5238056 L110.234791,50.053598 L128.130343,58.0071766 L131.076784,54.5696623 L156.44681,74.3019049 L153.217094,78.944621 L153.217094,78.944621 Z M119.979564,67.5164186 L113.583391,64.6736748 L101.421289,79.0470674 L107.49359,82.0833881 L119.979564,67.5164186 L119.979564,67.5164186 Z M118.556858,87.6153319 L128.951541,92.8129651 L140.098645,76.7890042 L132.741398,71.0667013 L118.556858,87.6153319 L118.556858,87.6153319 Z M143.697157,127.324351 L148.935187,131.021784 L163.869105,112.354387 L158.605847,107.091129 L143.697157,127.324351 L143.697157,127.324351 Z M12.5860435,84.8126506 C13.3504363,82.4777869 14.1888371,80.1764306 15.0984731,77.9113544 C14.1077441,75.9844421 12.1099619,74.1107628 9.47036884,72.7407702 C10.49129,70.3561482 11.5871246,68.0112298 12.7549132,65.7089742 C15.5039081,66.8506675 18.2258171,67.1752523 20.3389907,66.6925132 C21.4945412,64.5366715 22.7179987,62.4226738 24.0065036,60.3533796 C23.3707403,58.2822263 21.7309926,56.0868427 19.369638,54.2758921 C20.7884724,52.1079292 22.2754743,49.9886078 23.827599,47.9209724 C26.3406646,49.5215646 28.9680629,50.3102388 31.1328029,50.1952345 C32.6373064,48.2825338 34.2022309,46.4195973 35.8246998,44.6093015 C35.5635338,42.4579027 34.3319029,40.007365 32.3203759,37.810005 C34.0909879,35.9218882 35.9218882,34.0909879 37.810005,32.3203759 C40.007365,34.3319029 42.4579027,35.5635338 44.6093015,35.8246998 C46.4195973,34.2022309 48.2825338,32.6373064 50.1952345,31.1328029 C50.3102388,28.9680629 49.5215646,26.3406646 47.9209724,23.827599 C49.9886078,22.2754743 52.1079292,20.7884724 54.2758921,19.369638 C56.0868427,21.7309926 58.2822263,23.3707403 60.3533796,24.0065036 C62.4226738,22.7179987 64.5366715,21.4945412 66.6925132,20.3389907 C67.1752523,18.2258171 66.8506675,15.5039081 65.7089742,12.7549132 C68.0112298,11.5871246 70.3561482,10.49129 72.7407702,9.47036884 C74.1107628,12.1099619 75.9844421,14.1077441 77.9113544,15.0984731 C80.1764306,14.1888371 82.4777869,13.3504363 84.8126506,12.5860435 C85.6517621,10.5883613 85.8027743,7.85352646 85.1553962,4.95086045 C87.6220964,4.20477483 90.1223029,3.53584808 92.6532081,2.94688781 C93.5454719,5.78666003 95.0462793,8.08053729 96.7742885,9.3892749 C99.1521991,8.89249336 101.557559,8.4704578 103.987799,8.12573769 C105.16595,6.30777313 105.793973,3.64076254 105.663723,0.66796587 C108.218039,0.364334778 110.796931,0.140818365 113.397817,3.88912121e-13 C113.787786,2.95451952 114.873522,5.47423993 116.354149,7.0577018 C117.564724,7.01933047 118.780105,7 120,7 C121.219895,7 122.435276,7.01933047 123.645851,7.0577018 C125.126478,5.47423993 126.212214,2.95451952 126.602183,0 C129.203069,0.140818365 131.781961,0.364334778 134.336277,0.66796587 C134.206027,3.64076254 134.83405,6.30777313 136.012201,8.12573769 C138.442441,8.4704578 140.847801,8.89249336 143.225712,9.3892749 C144.953721,8.08053729 146.454528,5.78666003 147.346792,2.94688781 C149.877697,3.53584808 152.377904,4.20477483 154.844604,4.95086045 C154.197226,7.85352646 154.348238,10.5883613 155.187349,12.5860435 C157.522213,13.3504363 159.823569,14.1888371 162.088646,15.0984731 C164.015558,14.1077441 165.889237,12.1099619 167.25923,9.47036884 C169.643852,10.49129 171.98877,11.5871246 174.291026,12.7549132 C173.149332,15.5039081 172.824748,18.2258171 173.307487,20.3389907 C175.463328,21.4945412 177.577326,22.7179987 179.64662,24.0065036 C181.717774,23.3707403 183.913157,21.7309926 185.724108,19.369638 C187.892071,20.7884724 190.011392,22.2754743 192.079028,23.827599 C190.478435,26.3406646 189.689761,28.9680629 189.804765,31.1328029 C191.717466,32.6373064 193.580403,34.2022309 195.390698,35.8246998 C197.542097,35.5635338 199.992635,34.3319029 202.189995,32.3203759 C204.078112,34.0909879 205.909012,35.9218882 207.679624,37.810005 C205.668097,40.007365 204.436466,42.4579027 204.1753,44.6093015 C205.797769,46.4195973 207.362694,48.2825338 208.867197,50.1952345 C211.031937,50.3102388 213.659335,49.5215646 216.172401,47.9209724 C217.724526,49.9886078 219.211528,52.1079292 220.630362,54.2758921 C218.269007,56.0868427 216.62926,58.2822263 215.993496,60.3533796 C217.282001,62.4226738 218.505459,64.5366715 219.661009,66.6925132 C221.774183,67.1752523 224.496092,66.8506675 227.245087,65.7089742 C228.412875,68.0112298 229.50871,70.3561482 230.529631,72.7407702 C227.890038,74.1107628 225.892256,75.9844421 224.901527,77.9113544 C225.811163,80.1764306 226.649564,82.4777869 227.413957,84.8126506 C229.411639,85.6517621 232.146474,85.8027743 235.04914,85.1553962 C235.795225,87.6220964 236.464152,90.1223029 237.053112,92.6532081 C234.21334,93.5454719 231.919463,95.0462793 230.610725,96.7742885 C231.107507,99.1521991 231.529542,101.557559 231.874262,103.987799 C233.692227,105.16595 236.359237,105.793973 239.332034,105.663723 C239.635665,108.218039 239.859182,110.796931 240,113.397817 C237.04548,113.787786 234.52576,114.873522 232.942298,116.354149 C232.98067,117.564724 233,118.780105 233,120 C233,121.219895 232.98067,122.435276 232.942298,123.645851 C234.52576,125.126478 237.04548,126.212214 240,126.602183 C239.859182,129.203069 239.635665,131.781961 239.332034,134.336277 C236.359237,134.206027 233.692227,134.83405 231.874262,136.012201 C231.529542,138.442441 231.107507,140.847801 230.610725,143.225712 C231.919463,144.953721 234.21334,146.454528 237.053112,147.346792 C236.464152,149.877697 235.795225,152.377904 235.04914,154.844604 C232.146474,154.197226 229.411639,154.348238 227.413957,155.187349 C226.649564,157.522213 225.811163,159.823569 224.901527,162.088646 C225.892256,164.015558 227.890038,165.889237 230.529631,167.25923 C229.50871,169.643852 228.412875,171.98877 227.245087,174.291026 C224.496092,173.149332 221.774183,172.824748 219.661009,173.307487 C218.505459,175.463328 217.282001,177.577326 215.993496,179.64662 C216.62926,181.717774 218.269007,183.913157 220.630362,185.724108 C219.211528,187.892071 217.724526,190.011392 216.172401,192.079028 C213.659335,190.478435 211.031937,189.689761 208.867197,189.804765 C207.362694,191.717466 205.797769,193.580403 204.1753,195.390698 C204.436466,197.542097 205.668097,199.992635 207.679624,202.189995 C205.909012,204.078112 204.078112,205.909012 202.189995,207.679624 C199.992635,205.668097 197.542097,204.436466 195.390698,204.1753 C193.580403,205.797769 191.717466,207.362694 189.804765,208.867197 C189.689761,211.031937 190.478435,213.659335 192.079028,216.172401 C190.011392,217.724526 187.892071,219.211528 185.724108,220.630362 C183.913157,218.269007 181.717774,216.62926 179.64662,215.993496 C177.577326,217.282001 175.463328,218.505459 173.307487,219.661009 C172.824748,221.774183 173.149332,224.496092 174.291026,227.245087 C171.98877,228.412875 169.643852,229.50871 167.25923,230.529631 C165.889237,227.890038 164.015558,225.892256 162.088646,224.901527 C159.823569,225.811163 157.522213,226.649564 155.187349,227.413957 C154.348238,229.411639 154.197226,232.146474 154.844604,235.04914 C152.377904,235.795225 149.877697,236.464152 147.346792,237.053112 C146.454528,234.21334 144.953721,231.919463 143.225712,230.610725 C140.847801,231.107507 138.442441,231.529542 136.012201,231.874262 C134.83405,233.692227 134.206027,236.359237 134.336277,239.332034 C131.781961,239.635665 129.203069,239.859182 126.602183,240 C126.212214,237.04548 125.126478,234.52576 123.645851,232.942298 C122.435276,232.98067 121.219895,233 120,233 C118.780105,233 117.564724,232.98067 116.354149,232.942298 C114.873522,234.52576 113.787786,237.04548 113.397817,240 C110.796931,239.859182 108.218039,239.635665 105.663723,239.332034 C105.793973,236.359237 105.16595,233.692227 103.987799,231.874262 C101.557559,231.529542 99.1521991,231.107507 96.7742885,230.610725 C95.0462793,231.919463 93.5454719,234.21334 92.6532081,237.053112 C90.1223029,236.464152 87.6220964,235.795225 85.1553962,235.04914 C85.8027743,232.146474 85.6517621,229.411639 84.8126506,227.413957 C82.4777869,226.649564 80.1764306,225.811163 77.9113544,224.901527 C75.9844421,225.892256 74.1107628,227.890038 72.7407702,230.529631 C70.3561482,229.50871 68.0112298,228.412875 65.7089742,227.245087 C66.8506675,224.496092 67.1752523,221.774183 66.6925132,219.661009 C64.5366715,218.505459 62.4226738,217.282001 60.3533796,215.993496 C58.2822263,216.62926 56.0868427,218.269007 54.2758921,220.630362 C52.1079292,219.211528 49.9886078,217.724526 47.9209724,216.172401 C49.5215646,213.659335 50.3102388,211.031937 50.1952345,208.867197 C48.2825338,207.362694 46.4195973,205.797769 44.6093015,204.1753 C42.4579027,204.436466 40.007365,205.668097 37.810005,207.679624 C35.9218882,205.909012 34.0909879,204.078112 32.3203759,202.189995 C34.3319029,199.992635 35.5635338,197.542097 35.8246998,195.390698 C34.2022309,193.580403 32.6373064,191.717466 31.1328029,189.804765 C28.9680629,189.689761 26.3406646,190.478435 23.827599,192.079028 C22.2754743,190.011392 20.7884724,187.892071 19.369638,185.724108 C21.7309926,183.913157 23.3707403,181.717774 24.0065036,179.64662 C22.7179987,177.577326 21.4945412,175.463328 20.3389907,173.307487 C18.2258171,172.824748 15.5039081,173.149332 12.7549132,174.291026 C11.5871246,171.98877 10.49129,169.643852 9.47036884,167.25923 C12.1099619,165.889237 14.1077441,164.015558 15.0984731,162.088646 C14.1888371,159.823569 13.3504363,157.522213 12.5860435,155.187349 C10.5883613,154.348238 7.85352646,154.197226 4.95086045,154.844604 C4.20477483,152.377904 3.53584808,149.877697 2.94688781,147.346792 C5.78666003,146.454528 8.08053729,144.953721 9.3892749,143.225712 C8.89249336,140.847801 8.4704578,138.442441 8.12573769,136.012201 C6.30777313,134.83405 3.64076254,134.206027 0.66796587,134.336277 C0.364334778,131.781961 0.140818365,129.203069 -5.55268456e-14,126.602183 C2.95451952,126.212214 5.47423993,125.126478 7.0577018,123.645851 C7.01933047,122.435276 7,121.219895 7,120 C7,118.780105 7.01933047,117.564724 7.0577018,116.354149 C5.47423993,114.873522 2.95451952,113.787786 -2.27373675e-13,113.397817 C0.140818365,110.796931 0.364334778,108.218039 0.66796587,105.663723 C3.64076254,105.793973 6.30777313,105.16595 8.12573769,103.987799 C8.4704578,101.557559 8.89249336,99.1521991 9.3892749,96.7742885 C8.08053729,95.0462793 5.78666003,93.5454719 2.94688781,92.6532081 C3.53584808,90.1223029 4.20477483,87.6220964 4.95086045,85.1553962 C7.85352646,85.8027743 10.5883613,85.6517621 12.5860435,84.8126506 Z M120,218.913081 C123.313708,218.913081 126,216.22679 126,212.913081 C126,209.599373 123.313708,206.913081 120,206.913081 C116.686292,206.913081 114,209.599373 114,212.913081 C114,216.22679 116.686292,218.913081 120,218.913081 Z M25.9280693,150.565823 C26.9520616,153.717347 30.3369863,155.442053 33.4885104,154.41806 C36.6400345,153.394068 38.3647398,150.009143 37.3407475,146.857619 C36.3167553,143.706095 32.9318305,141.98139 29.7803065,143.005382 C26.6287824,144.029374 24.9040771,147.414299 25.9280693,150.565823 Z M61.8603495,39.9776361 C59.179503,41.9253851 58.58521,45.6776031 60.532959,48.3584496 C62.480708,51.0392961 66.232926,51.6335891 68.9137725,49.6858401 C71.594619,47.7380911 72.1889119,43.9858731 70.2411629,41.3050266 C68.293414,38.6241801 64.541196,38.0298872 61.8603495,39.9776361 Z M214.071931,150.565823 C215.095923,147.414299 213.371218,144.029374 210.219694,143.005382 C207.068169,141.98139 203.683245,143.706095 202.659252,146.857619 C201.63526,150.009143 203.359966,153.394068 206.51149,154.41806 C209.663014,155.442053 213.047938,153.717347 214.071931,150.565823 Z M178.139651,39.9776361 C175.458804,38.0298872 171.706586,38.6241801 169.758837,41.3050266 C167.811088,43.9858731 168.405381,47.7380911 171.086228,49.6858401 C173.767074,51.6335891 177.519292,51.0392961 179.467041,48.3584496 C181.41479,45.6776031 180.820497,41.9253851 178.139651,39.9776361 Z" id="Black" fill="#000000"></path>
                </g>
            </g>
        </g>
    </g>
</svg>